<svg xmlns="http://www.w3.org/2000/svg" viewBox="0 0 864 170.79" style="enable-background:new 0 0 864 170.79" xml:space="preserve"><path d="M212.44.01v170.77h23.43L235.89.01zM749.26.01v170.77H864v-23.44h-91.29V.01zM588.45.01l-69.38 170.76h25.28l15.94-39.2h80.91l15.94 39.2h25.3L613.07.01h-24.62zm12.3 31.97 31.34 77.11h-62.67l31.33-77.11zM436.96.01l-50.87 68.51L335.23.01h-29.19l65.46 88.18-61.29 82.58h29.19l46.7-62.91 14.6-19.67L466.16.01h-29.2zm-23.17 138.52 23.17 32.24h29.19l-47.88-66.12-4.28 5.79c-6.17 8.32-6.25 19.67-.2 28.09M23.44 97.14h12.9c20.87-.02 44.48-.02 47.45-.03 6.42.32 12.38 3.06 16.84 7.7 4.51 4.7 6.99 10.87 6.99 17.4 0 13.86-11.28 25.12-25.12 25.12H23.44V97.14zm77.19-31.16a25.092 25.092 0 0 1-16.84 7.7c-2.71-.02-22.47-.03-60.35-.03v-50.2H82.5c13.84 0 25.12 11.26 25.12 25.12 0 6.53-2.49 12.71-6.99 17.41m16.21 21.89c-.87-.87-1.75-1.68-2.68-2.49.93-.79 1.81-1.62 2.68-2.47 4.44-4.46 7.96-9.66 10.39-15.43 2.53-6 3.83-12.37 3.83-18.91 0-6.54-1.3-12.9-3.83-18.91a48.64 48.64 0 0 0-10.39-15.43 48.071 48.071 0 0 0-15.45-10.39A48.15 48.15 0 0 0 82.5 0H0v170.79h82.5c6.55 0 12.9-1.3 18.9-3.83 5.79-2.44 10.97-5.94 15.45-10.4 4.44-4.46 7.96-9.66 10.39-15.43 2.53-6 3.82-12.37 3.82-18.91 0-6.56-1.28-12.91-3.82-18.91a48.33 48.33 0 0 0-10.4-15.44"/></svg>