<svg xmlns="http://www.w3.org/2000/svg" viewBox="0 0 749.96 97.92"><defs><style>.cls-1{fill:#015bd8;}.cls-1,.cls-10,.cls-3,.cls-4,.cls-5,.cls-6,.cls-7,.cls-8{fill-rule:evenodd;}.cls-2,.cls-9{fill:none;}.cls-2{stroke:#282527;stroke-width:0.87px;}.cls-11,.cls-3{fill:#0049af;}.cls-4{fill:#040504;}.cls-5{fill:#403794;}.cls-6{fill:#6766ae;}.cls-7{fill:#282527;}.cls-8{fill:#040404;}.cls-9{stroke:#040504;stroke-width:0.65px;}.cls-10{fill:#1d1712;}</style></defs><g id="Layer_2" data-name="Layer 2"><g id="Layer_1-2" data-name="Layer 1"><path class="cls-1" d="M16.66,54.9c-4.52-1.36-6.14-13.17,4.91-8.26-2.29-14.35,4.26-19.15,8.94-22.17C-10.58,4.62-2.4,60.38,13.1,67c-.45-3.6-1.57-7.12,3.56-12.11"/><path class="cls-2" d="M16.66,54.9c-4.52-1.36-6.14-13.17,4.91-8.26-2.29-14.35,4.26-19.15,8.94-22.17C-10.58,4.62-2.4,60.38,13.1,67,12.65,63.41,11.53,59.89,16.66,54.9Z"/><path class="cls-3" d="M21.37,45.22l1.49-7.91-2.81-1.16c-5.06-1.68-8-2-13.11-3.65a1.72,1.72,0,0,0-2.22,1.2v0C2,46.16,7.2,62,11,64.86c.58-.68,1.12-1.36,1.65-2,0-2.32.82-4.83,4-7.91-4.52-1.36-6.14-13.17,4.91-8.26Z"/><path class="cls-1" d="M1.71,5.6c-.46,4.06,2.42,5.19,4.84,1.91A7.5,7.5,0,0,0,8,3.92C8.42-.14,5.55-1.27,3.12,2A7.38,7.38,0,0,0,1.71,5.6"/><path class="cls-4" d="M3.4,1.8A7.57,7.57,0,0,0,1.77,5.91c-.12,1.73.39,2.94,1.31,3.31s2-.14,3.08-1.36A7.44,7.44,0,0,0,7.9,3.6C8,1.88,7.51.67,6.59.31A1.63,1.63,0,0,0,5.71.22,4,4,0,0,0,3.4,1.8M3,9.4C1.93,9,1.37,7.53,1.62,5.51A7.54,7.54,0,0,1,3.1,1.88C4.26.34,5.61-.29,6.66.12S8.3,2,8.05,4A7.46,7.46,0,0,1,6.67,7.52,4.45,4.45,0,0,1,4,9.5a1.91,1.91,0,0,1-1-.1"/><path class="cls-4" d="M13.81,13.38l3.46-7.57A73.76,73.76,0,0,0,6.55,1.16a5.32,5.32,0,0,0-3.31,7,33.72,33.72,0,0,1,10.57,5.18"/><path class="cls-1" d="M9.86,8.93a7.51,7.51,0,0,1,1.66-4.22c1.11-1.36,2.28-1.83,3.17-1.55h0a1.09,1.09,0,0,1,.25.1l30.89,11-.18.86-3.37,8.24L14.45,13.48c-.09,0-3.28-1.21-3.36-1.25h0c-.83-.42-1.35-1.56-1.23-3.3"/><path class="cls-5" d="M10.25,11.3a7.73,7.73,0,0,1,2.57-6,2.53,2.53,0,0,1,2.27-.64h0l.24.1L45.5,15.51l-3.2,7.83L14.47,13.47c-.09,0-3.28-1.2-3.36-1.24h0a2,2,0,0,1-.86-.93"/><path class="cls-4" d="M10.28,7.17h0c.08,0,3.26,1.22,3.35,1.24l27.84,9.87,2.35-.63,2-3.4-.18.86-3.37,8.24L14.46,13.48c-.09,0-3.28-1.21-3.36-1.25h0a2.53,2.53,0,0,1-1.19-2,6.75,6.75,0,0,1,.33-3.08l0,0"/><path class="cls-4" d="M14.89,3.34l-.23-.09c-1-.32-2.38.43-3.48,2.09a7.72,7.72,0,0,0-1.11,2.74c-.38,2,.08,3.57,1.07,4.06.08,0,3.2,1.2,3.34,1.25l27.75,9.83,3.32-8.13.17-.78Zm-.47,10.23-3.37-1.25c-1.09-.55-1.6-2.24-1.14-4.43A7.93,7.93,0,0,1,11,5.21c1.14-1.72,2.57-2.49,3.68-2.14a.93.93,0,0,1,.25.1l31,11-.21,1-3.4,8.32Z"/><path class="cls-6" d="M40.81,21.2c.32,2.18,2,2.83,3.71,1.46a7.63,7.63,0,0,0,2.53-6.43c-.33-2.18-2-2.83-3.71-1.46a7.61,7.61,0,0,0-2.53,6.43"/><path class="cls-7" d="M43.4,14.84a7.56,7.56,0,0,0-2.5,6.34,2.35,2.35,0,0,0,1.28,2,2.35,2.35,0,0,0,2.28-.59A7.53,7.53,0,0,0,47,16.24a2.31,2.31,0,0,0-1.27-2,1.6,1.6,0,0,0-.87-.09,3.07,3.07,0,0,0-1.41.67m-1.29,8.51a2.53,2.53,0,0,1-1.4-2.14,7.75,7.75,0,0,1,2.57-6.52,2.52,2.52,0,0,1,2.47-.61,2.49,2.49,0,0,1,1.39,2.13,7.69,7.69,0,0,1-2.56,6.52,3.14,3.14,0,0,1-1.5.72,1.86,1.86,0,0,1-1-.1"/><path class="cls-1" d="M11,64.9a10,10,0,0,1,3.64-9.75,4.43,4.43,0,0,1,4-1.14l.24.18a3.93,3.93,0,0,1,.43.18l28.13,9.08L47.12,65,41.18,79.51l-21.91-8.7c-.15,0-5.78-2.13-5.92-2.2h0A5,5,0,0,1,11,64.9"/><path class="cls-3" d="M11.48,66.79c-.21-3.72.09-7.26,2.92-9.52a4.41,4.41,0,0,1,4-1.13l.43.17L46.49,65.5,40.84,79.32l-21.91-8.7c-.15-.05-5.78-2.13-5.92-2.2h0a3.58,3.58,0,0,1-1.53-1.63"/><path class="cls-4" d="M11.53,59.48h0c.14.07,5.77,2.16,5.92,2.2l21.91,8.71,4.16-1.13,3.58-6-.34,1.52L40.82,79.32l-21.9-8.7c-.15,0-5.78-2.13-5.92-2.2h0a4.45,4.45,0,0,1-2.12-3.53,12,12,0,0,1,.6-5.44l0,0"/><path class="cls-8" d="M18.87,54.33l-.41-.16a4.26,4.26,0,0,0-3.84,1.1A9.84,9.84,0,0,0,11,64.86a4.32,4.32,0,0,0,2,3.41L19,70.47,40.71,79.1l5.87-14.35.3-1.38Zm0,16.46s-5.75-2.12-5.94-2.22a4.63,4.63,0,0,1-2.21-3.66A10.24,10.24,0,0,1,14.4,55a4.63,4.63,0,0,1,4.17-1.16A2.53,2.53,0,0,1,19,54l28.26,9.14-.37,1.69-6,14.7Z"/><path class="cls-1" d="M38.34,75.57c.58,3.85,3.51,5,6.56,2.58A13.48,13.48,0,0,0,49.36,66.8c-.58-3.85-3.51-5-6.55-2.58a13.46,13.46,0,0,0-4.47,11.35"/><path class="cls-4" d="M42.91,64.35a13.33,13.33,0,0,0-4.4,11.2c.27,1.8,1.07,3,2.25,3.5s2.61.1,4-1a13.33,13.33,0,0,0,4.4-11.2c-.27-1.8-1.07-3-2.25-3.5a2.94,2.94,0,0,0-1.54-.16,5.41,5.41,0,0,0-2.49,1.19m-2.28,15c-1.3-.51-2.17-1.85-2.46-3.77A13.69,13.69,0,0,1,42.7,64.09c1.52-1.22,3.07-1.6,4.37-1.09s2.17,1.85,2.46,3.77A13.72,13.72,0,0,1,45,78.29a5.69,5.69,0,0,1-2.65,1.26,3.33,3.33,0,0,1-1.72-.18"/><path class="cls-1" d="M41.42,78.59c37.17,12,62-43.39,4.23-63.48a5.32,5.32,0,0,0-3.32,7c.62.17,1.23.36,1.84.57,23.48,8.16,42,48.61,3,42.63-6.14-.38-7.82,9.4-5.78,13.24"/><path class="cls-9" d="M41.42,78.59c37.17,12,62-43.39,4.23-63.48a5.32,5.32,0,0,0-3.32,7c.62.17,1.23.36,1.84.57,23.48,8.16,42,48.61,3,42.63C41.06,65,39.38,74.75,41.42,78.59Z"/><path class="cls-1" d="M18.81,42.77c-.88-5.89,2.18-13.68,6.84-17.39,2.2-1.75,4.36-2.28,6.12-1.73h0a4.16,4.16,0,0,1,.66.27l21.79,8.43-.51,2.33L44.63,56.94,31.11,51.55c-.23-.07-8.85-3.27-9.06-3.38h0c-1.62-.82-2.82-2.66-3.23-5.4"/><path class="cls-3" d="M19.75,45.67c-.31-5.69,2.63-12.66,7-16.11,2.2-1.75,4.37-2.28,6.13-1.73h0a5.18,5.18,0,0,1,.65.26l19.83,7.67L44.68,56.93,31.16,51.54c-.22-.07-8.84-3.27-9.06-3.37h0a5.39,5.39,0,0,1-2.35-2.49"/><path class="cls-4" d="M19.84,34.48h0c.21.1,8.83,3.3,9.06,3.37l13.52,5.39,6.37-1.73,5.47-9.18-.51,2.33L44.66,56.93,31.14,51.54c-.23-.07-8.85-3.26-9.06-3.37h0c-1.63-.82-2.83-2.67-3.24-5.41a18.4,18.4,0,0,1,.91-8.33l.09,0"/><path class="cls-4" d="M32.32,24.15a4.23,4.23,0,0,0-.62-.25c-1.75-.54-3.84.06-5.89,1.69-4.59,3.65-7.61,11.34-6.74,17.14.38,2.55,1.48,4.4,3.09,5.21.22.1,8.66,3.24,9.05,3.36l13.27,5.3,9-22,.46-2.11ZM31,51.8c-.06,0-8.8-3.24-9.1-3.39-1.77-.89-3-2.88-3.38-5.61-.89-6,2.21-13.87,6.93-17.62,2.19-1.75,4.45-2.38,6.38-1.78a5.19,5.19,0,0,1,.67.27l22,8.51L54,34.78l-9.19,22.5Z"/><path class="cls-1" d="M40.81,51.29c.88,5.89,5.38,7.66,10,4s7.72-11.5,6.83-17.39-5.38-7.65-10-3.94S39.93,45.4,40.81,51.29"/><path class="cls-4" d="M47.81,34.11c-4.59,3.65-7.61,11.34-6.74,17.14.41,2.75,1.63,4.66,3.44,5.37s4,.14,6.17-1.59c4.59-3.65,7.61-11.34,6.74-17.14C57,35.14,55.79,33.23,54,32.52a4.67,4.67,0,0,0-2.36-.24,8.28,8.28,0,0,0-3.81,1.83m-3.49,23c-2-.78-3.33-2.84-3.77-5.78-.89-6,2.21-13.87,6.93-17.63,2.33-1.85,4.71-2.45,6.7-1.66s3.32,2.83,3.76,5.77c.9,6-2.21,13.88-6.93,17.63A8.79,8.79,0,0,1,47,57.38a5.07,5.07,0,0,1-2.63-.27m-24.27-21c-5.07-.58-9.47,8.57-6.7,14.37.38-2.77.34-6,7.73-4.3ZM11.12,60.81s-6.8-3.61-7.62-6c.49,1.86,5.42,10.83,8,11.38s-.39-5.35-.39-5.35"/><path class="cls-5" d="M46,17.52c-2.16-.58-2.83,2.94-3,4.53l1,.34c7.8,2.71,15,9,19.83,15.92l3.43-.42,3-.63C67.22,27.71,50.71,18.77,46,17.52"/><path class="cls-10" d="M42.08,18.84a4.28,4.28,0,0,0,.36,3.27A38,38,0,0,1,50.62,26c-.79-3.25-5.62-6.1-8.54-7.18"/><path class="cls-3" d="M42,73.13c.41-1.62,1.12-4.32,3-5.68,1.94.2,7.54,1.86,15.06.68s2.37,6.59,2.37,6.59-6.15,1.62-6.92,1.72S42,73.13,42,73.13"/><path class="cls-4" d="M40.67,72.11c5.8,2.21,17.09,3.78,22.77.73A8.57,8.57,0,0,0,64,77.35s-7.66,5.19-22.81,1.36c-.82-1.93-.51-6.6-.51-6.6"/><path class="cls-1" d="M43.72,51c-.77-5.1,1.88-11.83,5.92-15C52,34,54.32,33.79,56,34.93c3.84,1.37,14.79,3.79,26.88-7.2a1,1,0,0,1,1.71,1L71.81,81.79,68,83.17a3.37,3.37,0,0,1-4.5-3c-.35-6.63-2.78-18.6-15.31-24.09C45.92,56,44.2,54.19,43.72,51"/><path class="cls-3" d="M48.55,56.38a4.12,4.12,0,0,1-3.48-2.23c-.09-4.84,2.41-10.58,6-13.47,2.36-1.88,4.67-2.13,6.34-1,3.81,1.36,14.65,3.75,26.64-7L72.21,82.11l-3.85,1.37a3.35,3.35,0,0,1-3.64-.92,32.81,32.81,0,0,0-1.32-6.17c-1.12-6.7-4.62-15.51-14.85-20"/><path class="cls-8" d="M84.34,28.93a.73.73,0,0,0-.35-.84.75.75,0,0,0-.93.09c-12.08,11-23,8.73-27.14,7.25l-.06,0c-1.64-1.12-3.83-.76-6,1-4,3.15-6.57,9.79-5.82,14.8.44,3,2,4.79,4.18,4.87l.09,0C60.92,61.63,63.39,73.7,63.74,80.41a3.12,3.12,0,0,0,4.16,2.77l3.72-1.33ZM64.83,83.28a3.65,3.65,0,0,1-1.61-2.85c-.34-6.57-2.76-18.4-15.1-23.85-2.42-.11-4.15-2.09-4.63-5.31-.78-5.17,1.92-12,6-15.3,2.38-1.89,4.79-2.26,6.63-1,4.07,1.45,14.74,3.61,26.58-7.16a1.3,1.3,0,0,1,2.15,1.27L72.06,82.25l-4,1.42a4.39,4.39,0,0,1-.69.18,3.67,3.67,0,0,1-2.55-.57Z"/><path class="cls-3" d="M68.71,93.08a9.44,9.44,0,0,1-1.28-1.22h0c-2.74-2.93-4.71-7.27-5.56-12.9-2.59-17.29,6.39-40.14,20.07-51,6.41-5.11,12.72-6.68,17.88-5.13l.47.16.23.09.64.25.13.06c.22.1.45.2.66.31,8.57,4.19,10.65,14.21,10.65,14.21l-1.2,1.59v0c1.8,12-2,26.62-9,38.11-2.2,5.76-5.44,10.89-10.2,13.92-6.75,4.31-12.13,5.14-16.12,4.63a13.27,13.27,0,0,1-7-2.81l-.3-.24-.06,0"/><path class="cls-1" d="M70,91c-.86-.7-.48-2.68-.48-2.68L69,89.71c-2.74-2.93-6-3.64-6.89-9.27-2.6-17.3,6.39-40.14,20.07-51,6.41-5.1,12.72-6.68,17.87-5.12.16,0,.31.09.48.15l.22.09c.22.08.44.16.65.26l.13,0,.66.31c8.57,4.19,10.64,14.22,10.64,14.22l-1.2,1.58V41c1.8,12-2,26.62-9,38.11-2.21,5.76-7,8.21-11.78,11.24-6.76,4.31-9,3.57-13,3.06-2.59-.25-3.68-.05-5.73-1.67C72,91.66,71.6,88.07,70,91c0,0,0,0,0,0"/><path class="cls-4" d="M61.89,80.57a50.55,50.55,0,0,1,1-18.28,21.9,21.9,0,0,0,5,10h0a9.58,9.58,0,0,0,1.29,1.23l0,0,.3.23a13.14,13.14,0,0,0,7,2.81c4,.52,9.37-.31,16.13-4.62,4.75-3,8-8.16,10.2-13.93a66.15,66.15,0,0,0,8.52-22.27,21.76,21.76,0,0,1,1.26,3.74l-1.2,1.59v.05c1.79,12-2,26.61-9,38.1C100.23,85,97,90.13,92.23,93.16c-6.75,4.31-12.13,5.14-16.12,4.63a13.23,13.23,0,0,1-7-2.82l-.3-.23-.06,0a9.81,9.81,0,0,1-1.28-1.23h0c-2.74-2.93-4.71-7.27-5.56-12.9"/><path class="cls-8" d="M101.84,23.89l-.65-.3-.13-.05-.63-.26-.23-.08a4.11,4.11,0,0,0-.46-.15c-5.27-1.59-11.53.21-17.64,5.08C68.51,39,59.55,61.73,62.13,78.92c.81,5.36,2.7,9.77,5.49,12.75l.14.16h0a10.09,10.09,0,0,0,1.12,1l-.17.21.22-.16.3.23a12.9,12.9,0,0,0,6.89,2.76c4.83.62,10.2-.92,15.95-4.59,4.23-2.7,7.63-7.34,10.12-13.84,7.25-11.86,10.69-26.4,9-38l0-.11,1.2-1.58c-.27-1.11-2.61-10.07-10.48-13.92M76.06,96.43a13.39,13.39,0,0,1-7.15-2.86l-.34-.27,0,0A9.9,9.9,0,0,1,67.22,92l0-.06c-2.83-3-4.75-7.53-5.57-13C59,61.65,68.05,38.64,81.78,27.72c6.24-5,12.67-6.81,18.11-5.18l.49.16.13.05.1,0,.66.26.13.06.67.31c8.58,4.2,10.76,14.3,10.79,14.4l0,.12-1.21,1.59c1.73,11.64-1.73,26.28-9,38.18-2.51,6.57-6,11.29-10.31,14.05a29.34,29.34,0,0,1-11.3,4.59,17.81,17.81,0,0,1-5,.08"/><path class="cls-1" d="M66.68,79c2.45,16.32,14.89,21.22,27.8,10.94s21.39-31.84,18.94-48.16S98.52,20.52,85.62,30.8,64.23,62.64,66.68,79"/><path class="cls-4" d="M83,56.24c-7,5.58-12.69,14.47-16,24.05-.08-.42-.16-.85-.23-1.29-2.44-16.32,6-37.88,18.94-48.16S111,25.46,113.43,41.78c1.12,7.46-.06,16-2.89,24.11-2.9-15.28-15-19.65-27.58-9.65"/><path class="cls-4" d="M85.78,31C73,41.21,64.51,62.71,66.94,78.91c1.17,7.8,4.65,13.21,9.81,15.24s11.4.44,17.57-4.47c12.82-10.21,21.27-31.7,18.84-47.91C112,34,108.5,28.56,103.34,26.53a13,13,0,0,0-6.79-.69A23.34,23.34,0,0,0,85.78,31M76.56,94.64C71.22,92.54,67.62,87,66.42,79c-2.46-16.37,6.08-38.08,19-48.4,6.32-5,12.74-6.65,18.09-4.54s8.94,7.65,10.14,15.64c2.46,16.38-6.08,38.09-19,48.4a23.77,23.77,0,0,1-11,5.28,13.64,13.64,0,0,1-7.06-.73"/><path class="cls-4" d="M80,47.29a3.09,3.09,0,0,0-.84-.85h0c-1.26-.87-3-.59-4.66.76a13.79,13.79,0,0,0-4.55,11.56c.35,2.33,1.58,3.74,3.29,3.77a3,3,0,0,0,.41,0l2.54-.1.61-1.53,0,0A14.08,14.08,0,0,0,81,50.4l.58-1.54ZM73.68,63a3.57,3.57,0,0,1-.46,0c-2,0-3.41-1.61-3.8-4.21a14.35,14.35,0,0,1,4.74-12C76,45.32,78,45.12,79.48,46l-.12-.14.12.14a3.78,3.78,0,0,1,.93.94l1.73,1.77-.66,1.69a14.63,14.63,0,0,1-4.25,10.75l-.68,1.74Z"/><path class="cls-4" d="M71.27,63.45c.85,5.61,5.12,7.29,9.56,3.76s7.35-10.94,6.51-16.55-5.12-7.29-9.56-3.76-7.35,10.94-6.51,16.55"/><path class="cls-4" d="M74.55,69.15c-2-.77-3.26-2.77-3.69-5.64C70,57.78,73,50.19,77.52,46.58c2.27-1.81,4.59-2.38,6.54-1.62s3.26,2.77,3.69,5.64c.86,5.73-2.13,13.33-6.66,16.94a8.55,8.55,0,0,1-4,1.88,5,5,0,0,1-2.59-.27"/><path class="cls-3" d="M69.8,76.46C67.68,62.33,75,43.65,86.21,34.75s22-4.66,24.08,9.47S105.07,77,93.89,85.93s-22,4.67-24.09-9.47M66.68,79c2.45,16.32,14.89,21.22,27.8,10.94s21.39-31.84,18.94-48.16S98.52,20.52,85.62,30.8,64.23,62.64,66.68,79"/><path class="cls-3" d="M94.16,89.11C83,98,72.2,93.77,70.08,79.64a34,34,0,0,1-.35-5.76c-1-13.75,6.17-30.76,16.68-39.13,11.18-8.9,22-4.66,24.08,9.47a35.16,35.16,0,0,1,.36,5.76c1,13.75-6.17,30.76-16.69,39.13m.52.78c11.27-9,19.16-26.55,19.36-41.72-.07-1.11-.18-2.2-.34-3.26C111.25,28.59,98.8,23.69,85.89,34,74.62,43,66.73,60.52,66.54,75.7c.07,1.1.18,2.19.34,3.26,2.45,16.32,14.89,21.21,27.8,10.93"/><path class="cls-4" d="M86.37,35C75.27,43.79,68,62.4,70.06,76.43c1,6.73,4,11.41,8.48,13.16s9.85.38,15.18-3.86c11.1-8.84,18.42-27.44,16.31-41.47-1-6.74-4-11.42-8.48-13.17a11.22,11.22,0,0,0-5.86-.6A20.16,20.16,0,0,0,86.37,35m-8,55.13c-4.64-1.82-7.77-6.64-8.81-13.58-2.13-14.19,5.28-33,16.51-42,5.48-4.36,11.06-5.76,15.69-3.94s7.77,6.65,8.81,13.58c2.13,14.2-5.27,33-16.5,42a20.7,20.7,0,0,1-9.57,4.58,11.83,11.83,0,0,1-6.13-.64M85.78,31C73,41.21,64.51,62.71,66.94,78.91c1.17,7.8,4.65,13.21,9.81,15.24s11.4.44,17.57-4.47c12.82-10.21,21.27-31.7,18.84-47.91C112,34,108.5,28.56,103.34,26.53a13,13,0,0,0-6.78-.69A23.28,23.28,0,0,0,85.78,31M76.56,94.64C71.22,92.54,67.62,87,66.42,79c-2.46-16.37,6.08-38.08,19-48.4,6.32-5,12.74-6.65,18.09-4.54s8.94,7.65,10.14,15.64c2.46,16.38-6.08,38.09-19,48.4a23.77,23.77,0,0,1-11,5.28,13.64,13.64,0,0,1-7.06-.73"/><path class="cls-11" d="M137,79.38V17.56h24.75a28.09,28.09,0,0,1,11.38,2,15.18,15.18,0,0,1,6.85,5.6,14.86,14.86,0,0,1,2.29,8.22,13.35,13.35,0,0,1-1.45,6.36,12.27,12.27,0,0,1-4,4.46,16.16,16.16,0,0,1-5.75,2.46v.61a13.89,13.89,0,0,1,6.63,2,14.1,14.1,0,0,1,5,5.15,15.27,15.27,0,0,1,1.94,7.86,16.09,16.09,0,0,1-2.43,8.77,16.57,16.57,0,0,1-7.17,6.08,27.28,27.28,0,0,1-11.68,2.23ZM150.1,43.43h9.69a11.41,11.41,0,0,0,4.79-1,7.92,7.92,0,0,0,3.32-2.7,7.17,7.17,0,0,0,1.22-4.19,6.81,6.81,0,0,0-2.37-5.41A9.93,9.93,0,0,0,160,28.13H150.1Zm0,25.27h10.66q5.46,0,8-2.1a6.93,6.93,0,0,0,2.5-5.6A8.36,8.36,0,0,0,170,56.47a8.56,8.56,0,0,0-3.52-3.08,12.28,12.28,0,0,0-5.42-1.11h-11Z"/><path class="cls-11" d="M205.83,17.56V79.38H193V17.56Z"/><path class="cls-11" d="M245.82,59.64V33h12.86V79.38H246.33V71h-.48a13.7,13.7,0,0,1-5.21,6.55A15.37,15.37,0,0,1,231.78,80a15.63,15.63,0,0,1-8.18-2.12,14.44,14.44,0,0,1-5.51-6,20.79,20.79,0,0,1-2-9.33V33H229V60.25a9.34,9.34,0,0,0,2.2,6.49A7.49,7.49,0,0,0,237,69.12a9.21,9.21,0,0,0,4.35-1.07,8.36,8.36,0,0,0,3.28-3.19A9.89,9.89,0,0,0,245.82,59.64Z"/><path class="cls-11" d="M290.07,80.29a24.6,24.6,0,0,1-12.3-2.91,19.83,19.83,0,0,1-7.93-8.27,27.31,27.31,0,0,1-2.77-12.7,27.08,27.08,0,0,1,2.77-12.55,20.59,20.59,0,0,1,7.84-8.43,22.74,22.74,0,0,1,11.87-3,24.43,24.43,0,0,1,8.56,1.46,19.3,19.3,0,0,1,6.94,4.39,19.93,19.93,0,0,1,4.64,7.35A29.55,29.55,0,0,1,311.35,56v3.53H272.2v-8h27A9.91,9.91,0,0,0,298,46.6a8.77,8.77,0,0,0-3.34-3.36A9.67,9.67,0,0,0,289.77,42a9.85,9.85,0,0,0-5.18,1.34A9.62,9.62,0,0,0,281.07,47a10.17,10.17,0,0,0-1.29,5v7.57a12.83,12.83,0,0,0,1.28,5.95,9.11,9.11,0,0,0,3.64,3.86,10.91,10.91,0,0,0,5.58,1.36,12.17,12.17,0,0,0,3.92-.6,8.14,8.14,0,0,0,3.05-1.82,7.77,7.77,0,0,0,1.93-3l11.9.78a16.26,16.26,0,0,1-3.7,7.47,18.46,18.46,0,0,1-7.18,5A27,27,0,0,1,290.07,80.29Z"/><path class="cls-11" d="M332.6,52.58v26.8H319.74V17.56h12.5V41.2h.54a13.18,13.18,0,0,1,5.07-6.44,15.46,15.46,0,0,1,8.78-2.34,16.56,16.56,0,0,1,8.44,2.09,14.33,14.33,0,0,1,5.62,6,20.09,20.09,0,0,1,2,9.34V79.38H349.8V52.16a9.43,9.43,0,0,0-2.15-6.67,7.9,7.9,0,0,0-6.12-2.39,9.31,9.31,0,0,0-4.63,1.12,7.79,7.79,0,0,0-3.14,3.24A11.09,11.09,0,0,0,332.6,52.58Z"/><path class="cls-11" d="M393.75,80.29a23.59,23.59,0,0,1-12.15-3,20.31,20.31,0,0,1-7.89-8.4,26.94,26.94,0,0,1-2.78-12.51,27.08,27.08,0,0,1,2.78-12.57,20.28,20.28,0,0,1,7.89-8.39,26.1,26.1,0,0,1,24.3,0,20.28,20.28,0,0,1,7.89,8.39,27,27,0,0,1,2.78,12.57,26.82,26.82,0,0,1-2.78,12.51,20.31,20.31,0,0,1-7.89,8.4A23.59,23.59,0,0,1,393.75,80.29Zm.06-10a8,8,0,0,0,5.35-1.83,11.27,11.27,0,0,0,3.24-5,22.08,22.08,0,0,0,1.1-7.22,22,22,0,0,0-1.1-7.21,11.34,11.34,0,0,0-3.24-5,7.91,7.91,0,0,0-5.35-1.84,8.13,8.13,0,0,0-5.42,1.84,11.25,11.25,0,0,0-3.29,5,22,22,0,0,0-1.1,7.21,22.08,22.08,0,0,0,1.1,7.22,11.18,11.18,0,0,0,3.29,5A8.17,8.17,0,0,0,393.81,70.33Z"/><path class="cls-11" d="M425,79.38V33h12.47v8.09h.48a12.1,12.1,0,0,1,4.26-6.54,11.27,11.27,0,0,1,6.88-2.21,19.51,19.51,0,0,1,2.08.12,14.47,14.47,0,0,1,2,.33V44.22a17.75,17.75,0,0,0-2.5-.49,22.66,22.66,0,0,0-2.93-.21,10.21,10.21,0,0,0-5.05,1.23,9.07,9.07,0,0,0-3.51,3.39,9.72,9.72,0,0,0-1.28,5V79.38Z"/><path class="cls-11" d="M472.56,52.58v26.8H459.71V33H472V41.2h.54a13,13,0,0,1,5.16-6.41,15.73,15.73,0,0,1,8.79-2.37,16.3,16.3,0,0,1,8.42,2.11,14.33,14.33,0,0,1,5.58,6,20.27,20.27,0,0,1,2,9.31V79.38H489.59V52.16a9.37,9.37,0,0,0-2.18-6.66,7.81,7.81,0,0,0-6.06-2.4,9.12,9.12,0,0,0-4.58,1.12,7.64,7.64,0,0,0-3.07,3.24A11.21,11.21,0,0,0,472.56,52.58Z"/><path d="M534.6,79.3H516.49V17.48h19.19a29.44,29.44,0,0,1,15.14,3.69,24.06,24.06,0,0,1,9.64,10.56,37.31,37.31,0,0,1,3.36,16.51,37.48,37.48,0,0,1-3.43,16.68,24.22,24.22,0,0,1-10,10.67Q543.89,79.31,534.6,79.3Zm-12.47-5.07h12.13c5.32,0,9.76-1,13.35-3.14a19.68,19.68,0,0,0,8.06-9,33,33,0,0,0,2.68-13.89,33.47,33.47,0,0,0-2.64-13.76A19.33,19.33,0,0,0,548,25.64a24,24,0,0,0-12.63-3.08H522.13Z"/><path d="M579.18,25a4,4,0,0,1-2.85-1.13,3.71,3.71,0,0,1,0-5.46,3.93,3.93,0,0,1,2.82-1.14A4,4,0,0,1,582,18.38a3.73,3.73,0,0,1,0,5.46A4,4,0,0,1,579.18,25ZM576.4,79.3V32.94h5.4V79.3Z"/><path d="M613.74,97.66a25.4,25.4,0,0,1-8.3-1.23,17.85,17.85,0,0,1-6-3.33,15.87,15.87,0,0,1-3.8-4.74l4.41-2.9a16.34,16.34,0,0,0,2.67,3.44,13.08,13.08,0,0,0,4.37,2.81,17.55,17.55,0,0,0,6.66,1.12q6.15,0,10-3.08c2.52-2.06,3.78-5.24,3.78-9.57V69.73H627A17.85,17.85,0,0,1,624.3,74a13.71,13.71,0,0,1-4.57,3.48,15.69,15.69,0,0,1-7,1.39,17.92,17.92,0,0,1-9.85-2.75,18.61,18.61,0,0,1-6.76-7.86A27.94,27.94,0,0,1,593.67,56a30,30,0,0,1,2.4-12.38,19.66,19.66,0,0,1,6.71-8.33,17.24,17.24,0,0,1,10.05-3,14.9,14.9,0,0,1,7.07,1.49,13.87,13.87,0,0,1,4.51,3.7,22.54,22.54,0,0,1,2.67,4.28h.54V32.94h5.26V80.51a17.29,17.29,0,0,1-2.51,9.69,14.91,14.91,0,0,1-6.82,5.63A24.94,24.94,0,0,1,613.74,97.66Zm-.36-23.76A13.2,13.2,0,0,0,621,71.74a13.5,13.5,0,0,0,4.86-6.2,24.86,24.86,0,0,0,1.69-9.63,26,26,0,0,0-1.66-9.64,15.13,15.13,0,0,0-4.81-6.64,13.51,13.51,0,0,0-15.56.07,15.37,15.37,0,0,0-4.83,6.75,26.08,26.08,0,0,0-1.63,9.46,24.52,24.52,0,0,0,1.66,9.37,14.15,14.15,0,0,0,4.86,6.34A13.07,13.07,0,0,0,613.38,73.9Z"/><path d="M650,25a4,4,0,0,1-2.85-1.13,3.73,3.73,0,0,1,0-5.46,4.1,4.1,0,0,1,5.67,0,3.73,3.73,0,0,1,0,5.46A4,4,0,0,1,650,25ZM647.18,79.3V32.94h5.41V79.3Z"/><path d="M685.1,32.94v4.68H663V32.94ZM669.88,21.83h5.41V67.2a8.79,8.79,0,0,0,1,4.54,5.6,5.6,0,0,0,2.6,2.33,8.65,8.65,0,0,0,3.41.68,10.4,10.4,0,0,0,1.81-.14c.5-.09.94-.19,1.33-.29l1.14,4.86a13.59,13.59,0,0,1-1.93.56,13.8,13.8,0,0,1-8.52-1,10.73,10.73,0,0,1-6.24-10.23Z"/><path d="M710.24,80.36a17.65,17.65,0,0,1-7.67-1.65A13.24,13.24,0,0,1,697.05,74a13.55,13.55,0,0,1-2-7.6,11.91,11.91,0,0,1,1.29-5.79A10.67,10.67,0,0,1,700,56.69a20.47,20.47,0,0,1,5.64-2.38A52.75,52.75,0,0,1,712.8,53q3.9-.48,6.6-.84A12.13,12.13,0,0,0,723.52,51a2.68,2.68,0,0,0,1.42-2.54V47.34a9.91,9.91,0,0,0-2.82-7.47q-2.83-2.73-8.11-2.73a13.93,13.93,0,0,0-8.16,2.2,12.19,12.19,0,0,0-4.43,5.19l-5.1-1.84a15.19,15.19,0,0,1,4.35-6.08,17.34,17.34,0,0,1,6.22-3.29,24.39,24.39,0,0,1,7-1,23.79,23.79,0,0,1,5.54.69,15.86,15.86,0,0,1,5.36,2.4,12.43,12.43,0,0,1,4,4.74,16.85,16.85,0,0,1,1.54,7.68V79.3h-5.37V72h-.33a14.52,14.52,0,0,1-2.87,4A14.78,14.78,0,0,1,717,79.12,16.81,16.81,0,0,1,710.24,80.36Zm.72-4.92a14,14,0,0,0,7.43-1.9,13.06,13.06,0,0,0,4.84-5.06,14.35,14.35,0,0,0,1.71-7v-6.7a5.16,5.16,0,0,1-2,1,26.74,26.74,0,0,1-3.23.8c-1.22.23-2.43.43-3.64.59l-3.26.42a30.41,30.41,0,0,0-6.7,1.51A9.7,9.7,0,0,0,701.85,62a7,7,0,0,0-1.48,4.61,7.73,7.73,0,0,0,3,6.53A12.08,12.08,0,0,0,711,75.44Z"/><path d="M750,17.48V79.3h-5.37V17.48Z"/></g></g></svg>