<svg width="969.307" height="364.947" version="1.2" viewBox="0 0 726.98 273.71" xmlns="http://www.w3.org/2000/svg"><g fill="#0b2339"><path d="M719.11 203.41h-33.773c-3.246 0-6.356-1.238-8.648-3.445l-67.27-71.023-67.2 71.023c-2.296 2.207-5.402 3.445-8.648 3.445h-33.953c-4.375 0-6.57-5.09-3.472-8.07l88.125-92.633-88.125-92.637c-3.098-2.977-.903-8.07 3.472-8.07h33.816c3.242 0 6.356 1.242 8.649 3.449l67.336 70.797 67.105-70.797c2.293-2.207 5.406-3.45 8.648-3.45h33.938c4.375 0 6.566 5.094 3.473 8.07l-88.016 92.638 88.016 92.633c3.094 2.98.902 8.07-3.473 8.07M46.945 71.531v15.086c0 .148.121.27.27.27h164.54a4.996 4.996 0 0 1 4.996 5v30.406a4.993 4.993 0 0 1-4.996 4.996H47.215c-.149 0-.27 71.207-.27 71.207a4.915 4.915 0 0 1-4.914 4.914H7.847a4.913 4.913 0 0 1-4.914-4.914V63.126c0-33.762 27.367-61.13 61.129-61.13h147.7a4.995 4.995 0 0 1 4.996 4.997v30c0 2.761-2.235 5-4.996 5H76.482c-16.312 0-29.535 13.223-29.535 29.535M457.57 148.46a77.751 77.751 0 0 1-13.918 6.555c-5.746 7.219-14.621 11.859-24.566 11.859h-106.73c-17.367 0-31.449-14.082-31.449-31.453V69.98c0-11.82 6.555-22.172 16.242-27.512 3.606-1.989 7.586-3.313 11.855-3.754a32.663 32.663 0 0 1 3.352-.188h106.73c17.37 0 31.453 14.082 31.453 31.453v6.813c15.43.738 27.988-5.266 36.496-11.23a92.673 92.673 0 0 0 3.683-2.727v-1.14c0-32.961-26.738-59.7-59.664-59.7h-130.18c-33.238 0-60.18 26.946-60.18 60.185v81.566c0 32.926 26.734 59.66 59.695 59.66h130.66c32.953 0 59.664-26.711 59.664-59.66v-30.531c-1.18 2.097-2.394 4.164-3.683 6.113-8.067 12.559-17.898 22.28-29.465 29.133"/></g><path d="M494.39 73.613c-1.09 4.16-2.348 8.129-3.688 11.957a120.485 120.485 0 0 1-3.66 9.605c-8.52 19.978-20.727 39.669-52.21 50.563 2.624-1.704 7.347-7.68 7.765-8.184-.977.223-17.012 4.637-34.441-.027 11.312-1.286 28.156-5.114 42.543-18.97 0 0-20.336-2.71-34.246-14.69 0 0 17.125.722 32.598-6.54 0 0-10.81-5.726-17.316-12.848 3.129.641 8.379 1.786 11.453 2.262.082 0 .195.055.305.055 1.148.14 2.265.281 3.351.39 1.258.114 2.488.227 3.688.254 14.695.641 27.07-3.773 36.512-9.191 1.285-.7 2.488-1.453 3.66-2.207 1.312-.809 2.543-1.676 3.687-2.516 0-.027.055-.027.055-.027 0 .027-.055.055-.055.113m0-7.07c-1.144.922-2.347 1.875-3.687 2.797-1.117.836-2.375 1.648-3.66 2.457-9.106 5.727-21.566 10.78-36.512 10.14-1.2-.054-2.43-.167-3.688-.25-.836-.112-1.676-.226-2.539-.335-.363-.086-.754-.113-1.117-.195-35.898-5.563-77.828-24.305-104.45-31.203-6.567-1.676-13.66-3.184-20.754-4.47h-5.617c-13.297 0-24.078 10.782-24.078 24.079v32.32c30.949 12.207 61.148 36.68 93.355 47.152 9.836 3.183 26.035 6.648 43.637 4.305a80.163 80.163 0 0 0 11.898-2.461c1.984-.586 3.937-1.227 5.922-2.012 1.73-.613 3.41-1.34 5.14-2.148 14.22-6.649 27.961-18.523 38.801-38.746a114.315 114.315 0 0 0 3.66-7.43 117.891 117.891 0 0 0 3.688-8.856c3.77-9.832 6.898-21.148 9.332-34.109 0 0-3.27 4.133-9.332 8.965" fill="#e7202f"/><path d="M494.45 73.5c0 .027-.055.059-.055.113-1.09 4.16-2.347 8.13-3.687 11.957a120.485 120.485 0 0 1-3.66 9.606c-8.52 19.977-20.727 39.668-52.211 50.562 2.629-1.703 7.347-7.68 7.765-8.184-.976.223-17.012 4.637-34.44-.027 11.311-1.285 28.155-5.113 42.542-18.97 0 0-20.336-2.706-34.246-14.69 0 0 17.125.722 32.598-6.54 0 0-10.809-5.726-17.316-12.847 3.13.64 8.38 1.785 11.45 2.261.085 0 .198.055.308.055 1.144.14 2.265.281 3.351.39 1.258.114 2.489.227 3.688.255 14.695.64 27.07-3.774 36.512-9.192 1.285-.699 2.488-1.453 3.66-2.207 1.313-.808 2.543-1.676 3.688-2.515 0-.028.054-.028.054-.028" fill="#fff"/><g fill="#0b2339"><path d="M26.562 238.8c0-4.309-2.356-6.863-7.672-6.863h-7.469v13.66h7.47c5.316 0 7.671-2.621 7.671-6.797m-7.27 14.402h-7.87v18.035H1.998v-46.973h17.293c11.31 0 16.961 6.394 16.961 14.535 0 7.133-4.847 14.402-16.96 14.402M73.859 231.88v11.777h15.816v7.469H73.859v12.449h17.836v7.672H64.441v-47.04h27.254v7.673zM120.55 257.71h10.094c.273 3.77 2.762 6.258 7.133 6.258 4.441 0 7.066-2.356 7.066-5.719 0-10.164-24.227-4.04-24.156-21.062 0-8.48 6.863-13.594 16.555-13.594 9.621 0 16.22 4.914 16.824 13.391h-10.363c-.203-3.094-2.695-5.516-6.73-5.586-3.703-.133-6.461 1.684-6.461 5.52 0 9.421 24.09 4.171 24.09 20.727 0 7.402-5.922 14.066-16.621 14.066-9.758 0-17.293-5.118-17.43-14M216.24 224.27v7.606h-12.516v39.367h-9.422v-39.367h-12.516v-7.606zM303.71 223.66c10.43 0 18.906 5.586 22.074 15.211h-10.836c-2.219-4.508-6.258-6.73-11.305-6.73-8.21 0-14.066 5.988-14.066 15.543 0 9.488 5.856 15.543 14.066 15.543 5.047 0 9.086-2.22 11.305-6.793h10.836c-3.168 9.687-11.645 15.206-22.074 15.206-13.523 0-23.824-9.89-23.824-23.957 0-14.062 10.301-24.023 23.824-24.023M391.52 247.62c0-9.559-5.856-15.543-14.332-15.543-8.547 0-14.402 5.984-14.402 15.543 0 9.555 5.856 15.68 14.402 15.68 8.477 0 14.332-6.125 14.332-15.68m-38.426 0c0-14.062 10.836-24.023 24.094-24.023 13.391 0 24.02 9.96 24.02 24.023 0 14.133-10.695 24.094-24.02 24.094-13.258 0-24.094-9.96-24.094-24.094M469.9 271.24h-9.422l-21.332-32.234v32.234h-9.422v-47.039h9.422l21.332 32.301v-32.301h9.422zM532.68 224.27v7.606h-12.516v39.367h-9.422v-39.367h-12.516v-7.606zM578.36 232.08h-7.875v13.793h7.875c5.25 0 7.602-2.758 7.602-6.996 0-4.172-2.352-6.797-7.602-6.797m17.293 6.594c0 5.719-3.164 11.508-10.699 13.527l11.238 19.043h-10.898l-10.367-18.305h-4.441v18.305h-9.418V224.27h17.629c11.305 0 16.957 6.527 16.957 14.402M661.86 247.62c0-9.559-5.852-15.543-14.332-15.543-8.547 0-14.402 5.984-14.402 15.543 0 9.555 5.856 15.68 14.402 15.68 8.48 0 14.332-6.125 14.332-15.68m-38.422 0c0-14.062 10.832-24.023 24.09-24.023 13.391 0 24.023 9.96 24.023 24.023 0 14.133-10.699 24.094-24.023 24.094-13.258 0-24.09-9.96-24.09-24.094M709.5 263.77h15.477v7.469h-24.898v-46.973h9.422z"/></g></svg>