<svg width="1426.4" height="477.37" version="1.1" viewBox="0 0 1426.4 477.37" xml:space="preserve" xmlns="http://www.w3.org/2000/svg"><defs><clipPath id="f"><path d="m0 0h751.85v1124.1h-751.85z"/></clipPath><clipPath id="e"><path d="m904.78 1568.5h1264.6v1400h-1264.6z"/></clipPath><clipPath id="d"><path d="m904.78 167.91h1264.6v1400h-1264.6z"/></clipPath><clipPath id="c"><path d="m900.29 1226.9h537.7v683.48h-537.7z"/></clipPath><clipPath id="b"><path d="m0 649.03h751.85v1825h-751.85z"/></clipPath><clipPath id="a"><path d="m0 1990v1590h752v-1590z"/></clipPath></defs><g transform="matrix(1.3333 0 0 -1.3333 0 477.37)"><g transform="scale(.1)"><path d="m751.85 624.84v499.3h4e-3v-499.29s-4e-3 0-4e-3 -0.012" fill="#fff"/><g clip-path="url(#f)"><path d="m0 0v649.02l751.85 475.12-4e-3 -499.3c-0.532-2.168-82.223-332.98-751.85-624.84" fill="#b1d819"/></g><path d="m2169.4 2253.1v715.35l0.01-0.01v-713.8c0-0.51 0-1.03-0.01-1.54" fill="#fff"/><g clip-path="url(#e)"><path d="m2169.4 2248.7v719.66c0.02 0.03 0.03 0.04 0.03 0.05v-715.34c0-1.46-0.01-2.92-0.03-4.37" fill="#fff"/><path d="m1437.8 1568.8-532.91 341.28c32.297 225.78 256.38 342.22 256.38 342.22l688.19 432.47c209.01 149.3 317.64 280.85 319.95 283.65v-719.66c-2.7-213.17-150.88-306.49-150.88-306.49l-580.73-373.47" fill="#b1d819"/></g><path d="m2169.4 167.91h-0.01 0.01l-0.01 715.39c0.01-0.52 0.01-1.039 0.01-1.551v-713.84m-732.12 1400h-0.01" fill="#fff"/><g clip-path="url(#d)"><path d="m2169.4 167.91c-0.01 0.012-0.02 0.02-0.04 0.039v719.71c0.02-1.449 0.03-2.91 0.03-4.359v-715.39" fill="#fff"/><path d="m2169.4 167.95c-2.31 2.821-110.94 134.43-319.95 283.74l-688.19 432.43s-224.49 116.65-256.46 342.84l532.52 340.97h0.01l581.2-373.73s148.18-93.37 150.88-306.54v-719.71" fill="#1d3931"/></g><g clip-path="url(#c)" fill="#6b9d2d"><path d="m904.32 1226.9c-2.441 17.32-4.023 35.06-4.023 53.68v576.17c0 18.57 1.582 36.32 4.023 53.63l0.555-0.35c-0.027-0.21-0.058-0.41-0.086-0.62l532.52-340.96 0.48 0.3 0.21-0.13-533.67-341.72"/><path d="m1437.3 1568.5-532.52 340.96c0.028 0.21 0.059 0.41 0.086 0.62l532.91-341.28-0.48-0.3"/></g><path d="m0 649.02v1825-1825" fill="#fff"/><path d="m751.85 1124.1h4e-3v866.45h-4e-3z" fill="#fff"/><g clip-path="url(#b)" fill="#6b9d2d"><path d="m0 649.03v1825l751.85-483.41-4e-3 -866.45h4e-3l-751.85-475.12"/><path d="m0 649.03 751.85 475.11h-4e-3l-751.85-475.12"/></g><path d="m751.85 1990.6-4e-3 890.43c4e-3 -0.23 4e-3 -0.34 4e-3 -0.34v-890.09" fill="#fff"/><path d="m0 2474v1106.3-1106.3" fill="#fff"/><g clip-path="url(#a)"><path d="m751.85 1990.6-751.85 483.41v1106.3c740.43-202.62 751.68-684.66 751.85-699.27v-890.43" fill="#1d3931"/></g><g fill="#1d3931" fill-rule="evenodd"><path d="m5059 1854.3c0-222.05-172.03-395.98-391.66-395.98-220.83 0-393.81 173.93-393.81 395.98 0 222.03 172.98 395.95 393.81 395.95 219.63 0 391.66-173.92 391.66-395.95zm0 474.3c-105.88 96.88-244.81 150.11-400.27 150.11-347.73 0-620.12-274.26-620.12-624.41 0-350.16 272.39-624.45 620.12-624.45 155.46 0 294.39 53.23 400.27 150.11v-126.43h234.93v1201.5h-234.93v-126.43"/><path d="m6120.6 2478.7c-128.87 0-237.91-37.47-322.77-109.83v86.15h-232.77v-1201.5h232.77v630.9c0 232.47 114.5 365.82 314.15 365.82 161.34 0 253.88-96.47 253.88-264.67v-732.05h234.92v732.05c0 294.95-192.97 493.13-480.18 493.13"/><path d="m7420.8 2250.3c219.62 0 391.65-173.92 391.65-395.95 0-222.05-172.03-395.98-391.65-395.98-220.83 0-393.82 173.93-393.82 395.98 0 222.03 172.99 395.95 393.82 395.95zm0 228.46c-352.56 0-628.73-274.26-628.73-624.41 0-350.16 276.17-624.45 628.73-624.45 351.35 0 626.58 274.29 626.58 624.45 0 350.15-275.23 624.41-626.58 624.41"/><path d="m9245.3 1854.3c0-222.05-172.98-395.98-393.81-395.98s-393.8 173.93-393.8 395.98c0 222.03 172.97 395.95 393.8 395.95s393.81-173.92 393.81-395.95zm-387.35 624.41c-154.16 0-294.58-55.16-400.26-153.07v129.39h-232.78v-1762.7l232.78 147.08v543.55c105.67-97.88 246.1-153.07 400.26-153.07 347.72 0 620.1 274.29 620.1 624.45 0 350.15-272.38 624.41-620.1 624.41"/><path d="m9663.5 1253.6h232.76v1147.7l-232.76-147.15v-1000.6"/></g><path d="m10055 3017.1-288.29-181.15s-93.89-48.79-107.39-143.4l-0.23 0.21c-1.03-7.25-1.69-14.68-1.69-22.46v-298.83c0-7.79 0.66-15.23 1.69-22.48l223.53 143.13-0.07 0.06 243.25 156.42s63.2 39.82 63.2 130.86v356.47s-45.5-55.61-134-118.83" fill="#6b9d2d" fill-rule="evenodd"/><path d="m3441.5 1874.8 627.23 583.01h-327.68l-575.63-525.78v789.18c0 129.17-104.71 233.88-233.88 233.88v-1705h233.88l-9.37 578.26 598.52-578.26h329.78l-642.85 624.71" fill="#1d3931"/><g fill="#6b9d2d"><path d="m2919.5 282.46 42.61 89.828c59.9-54.141 162.44-93.309 266.11-93.309 139.39 0 199.3 54.141 199.3 124.43 0 196.98-488.44 72.582-488.44 372.08 0 124.42 96.75 230.4 308.73 230.4 94.45 0 192.38-25.339 259.2-71.429l-38.03-92.172c-70.26 44.953-149.74 65.68-221.17 65.68-137.08 0-195.83-57.61-195.83-127.87 0-196.98 488.43-73.723 488.43-369.78 0-123.27-99.07-229.24-312.19-229.24-123.25 0-244.21 41.469-308.72 101.38"/><path d="m4177.8 226c-33.41-28.789-84.11-42.621-133.63-42.621-123.25 0-193.53 67.973-193.53 191.22v335.24h-103.67v90.988h103.67v133.63h110.6v-133.63h175.09v-90.988h-175.09v-330.63c0-65.672 34.55-102.52 95.6-102.52 32.26 0 63.35 10.36 86.4 28.797l34.56-79.488"/><path d="m5011.4 800.83v-610.54h-104.83v92.172c-44.93-63.379-120.96-99.082-207.35-99.082-157.83 0-262.65 86.402-262.65 266.11v351.34h110.58v-338.66c0-119.81 59.9-179.71 164.74-179.71 115.19 0 188.92 71.398 188.92 202.73v315.64h110.59"/><path d="m5781.2 495.58c0 130.15-88.69 214.26-205.03 214.26-117.51 0-206.21-84.11-206.21-214.26 0-130.19 88.7-215.44 206.21-215.44 116.34 0 205.03 85.25 205.03 215.44zm109.46 559.9v-865.19h-105.98v96.762c-49.55-69.11-127.87-103.67-217.74-103.67-178.54 0-308.73 125.57-308.73 312.2 0 186.6 130.19 311.01 308.73 311.01 86.4 0 162.44-32.25 213.12-97.918v277.42l110.6 69.39"/><path d="m6238.7 800.83h110.59v-610.54h-110.59zm-19.58 188.92c0 40.32 32.26 72.58 74.87 72.58 42.62 0 74.88-31.11 74.88-70.26 0-41.488-31.12-73.718-74.88-73.718-42.61 0-74.87 31.078-74.87 71.398"/><path d="m7141 495.58c0 130.15-87.53 214.26-205.02 214.26-117.51 0-206.22-84.11-206.22-214.26 0-130.19 88.71-215.44 206.22-215.44 117.49 0 205.02 85.25 205.02 215.44zm-522.98 0c0 182 134.77 311.01 317.96 311.01 183.15 0 316.78-129.01 316.78-311.01 0-182.04-133.63-312.2-316.78-312.2-183.19 0-317.96 130.16-317.96 312.2"/><path d="m7467.1 254.81 46.08 87.55c51.85-36.871 134.78-63.379 214.27-63.379 102.52 0 145.16 31.122 145.16 82.961 0 137.07-385.92 18.418-385.92 261.5 0 109.43 97.92 183.15 254.58 183.15 79.49 0 169.33-20.731 222.32-55.281l-47.22-87.547c-55.29 35.699-116.34 48.379-176.25 48.379-96.77 0-144.01-35.7-144.01-84.102 0-143.99 387.07-26.508 387.07-263.8 0-110.6-101.37-180.86-263.79-180.86-101.37 0-201.59 31.113-252.29 71.43"/></g><path d="m10404 2930.8h-32.5v171.06h-58.6v27.89h149.6v-27.89h-58.5v-171.06" fill="#1d3931"/><path d="m10579 2930.8-57.7 166.16h-1.1c1.5-24.68 2.3-47.81 2.3-69.4v-96.76h-29.5v198.95h45.9l55.2-158.26h0.8l56.9 158.26h46v-198.95h-31.3v98.39c0 9.89 0.2 22.77 0.7 38.65 0.5 15.87 1 25.49 1.3 28.85h-1.1l-59.7-165.89h-28.7" fill="#1d3931"/></g></g></svg>
