<svg width="1066.7" height="300" version="1.1" viewBox="0 0 1066.7 300" xml:space="preserve" xmlns="http://www.w3.org/2000/svg"><defs><clipPath id="a"><path d="m0 225h800v-225h-800z"/></clipPath></defs><g transform="matrix(1.3333 0 0 -1.3333 0 300)"><g clip-path="url(#a)"><g transform="translate(88.733 68.356)"><path d="m0 0c15.539 0 26.752 14.417 26.752 35.242 0 18.903-6.728 33-24.349 33-7.689 0-16.019-4.485-25.151-12.655v-45.655c8.491-7.209 16.821-9.932 22.748-9.932m-29.796 110.85h7.048v-33.32l-0.32-15.058c7.85 6.568 17.141 12.015 26.592 12.015 20.505 0 30.757-15.379 30.757-39.248 0-26.111-15.859-41.489-33.961-41.489-7.368 0-15.859 3.524-23.068 9.131h-0.32l-0.801-7.209h-5.927z"/></g><g transform="translate(152.01 68.196)"><path d="m0 0c8.811 0 16.66 4.325 26.111 12.495v26.112c-31.557-3.685-42.29-11.053-42.29-23.228 0-11.054 7.368-15.379 16.179-15.379m26.111 44.053c0.321 11.694-3.043 24.349-18.101 24.349-10.413 0-19.384-5.126-24.51-8.97l-3.204 5.286c5.447 3.845 16.02 9.932 28.515 9.932 18.262 0 24.349-13.136 24.349-29.636v-49.179h-5.927l-0.801 9.932h-0.321c-7.849-6.247-17.14-11.854-27.232-11.854-12.175 0-22.427 6.568-22.427 21.145 0 16.981 15.538 25.151 49.659 28.995"/></g><g transform="translate(228.9 142.85)"><path d="m0 0c10.573 0 17.461-4.646 22.587-9.451l-4.165-4.966c-4.966 4.645-10.733 8.169-18.262 8.169-15.699 0-27.873-13.936-27.873-34.281 0-20.184 11.053-33.961 27.873-33.961 8.17 0 15.219 4.005 20.505 8.811l3.684-4.806c-6.567-5.927-14.737-10.252-24.509-10.252-19.864 0-34.922 14.738-34.922 40.208 0 25.791 16.339 40.529 35.082 40.529"/></g><g transform="translate(262.86 179.21)"><path d="m0 0h7.048v-84.902h0.321l37.966 46.616h8.17l-24.991-30.437 29.155-46.456h-7.849l-25.47 41.17-17.302-20.184v-20.986h-7.048z"/></g><g transform="translate(349.3 68.356)"><path d="m0 0c8.49 0 16.019 4.485 24.189 12.655v45.655c-8.17 7.209-14.898 9.932-22.427 9.932-15.378 0-27.073-14.898-27.073-34.281 0-20.345 8.971-33.961 25.311-33.961m1.282 74.49c9.291 0 15.538-3.525 23.227-9.452l-0.32 14.097v31.718h7.049v-115.18h-6.088l-0.641 9.932h-0.48c-6.248-6.248-14.738-11.854-24.99-11.854-19.384 0-31.878 14.256-31.878 40.208 0 24.83 15.859 40.529 34.121 40.529"/></g><g transform="translate(391.11 140.92)"><path d="m0 0h6.087l0.641-14.257h0.481c5.126 9.451 12.655 16.179 21.786 16.179 2.883 0 5.126-0.32 7.689-1.602l-1.602-6.407c-2.563 0.961-4.004 1.281-7.048 1.281-6.888 0-15.058-5.286-20.986-19.703v-52.384h-7.048z"/></g><g transform="translate(459.99 68.356)"><path d="m0 0c15.539 0 27.233 13.777 27.233 33.961 0 20.344-11.694 34.281-27.233 34.281s-27.073-13.937-27.073-34.281c0-20.184 11.534-33.961 27.073-33.961m0 74.49c18.582 0 34.602-14.738 34.602-40.529 0-25.471-16.02-40.208-34.602-40.208-18.422 0-34.441 14.737-34.441 40.208 0 25.791 16.019 40.529 34.441 40.529"/></g><g transform="translate(534 68.356)"><path d="m0 0c15.539 0 26.752 14.417 26.752 35.242 0 18.903-6.728 33-24.349 33-7.689 0-15.859-4.485-25.151-12.655v-45.655c8.811-7.209 16.821-9.932 22.748-9.932m-22.748-11.053v-28.034h-7.048v111.65h6.087l0.641-9.611h0.481c7.529 5.927 16.66 11.534 26.111 11.534 20.505 0 30.757-15.379 30.757-39.248 0-26.111-15.859-41.489-33.961-41.489-7.208 0-15.058 3.524-23.068 9.451z"/></g><g transform="translate(741,60)"><path d="m0 0v61.416l-61.275-61.416z"/></g><g transform="translate(618,183)"><path d="m0 0v-123h62v61h61v62z"/></g></g></g></svg>
